<?xml version="1.0" standalone="no"?>
<!DOCTYPE svg PUBLIC "-//W3C//DTD SVG 20010904//EN"
 "http://www.w3.org/TR/2001/REC-SVG-20010904/DTD/svg10.dtd">
<svg version="1.0" xmlns="http://www.w3.org/2000/svg"
 width="1080.000000pt" height="1080.000000pt" viewBox="0 0 1080.000000 1080.000000"
 preserveAspectRatio="xMidYMid meet">
<metadata>
Created by potrace 1.11, written by Peter Selinger 2001-2013
</metadata>
<g transform="translate(0.000000,1080.000000) scale(0.100000,-0.100000)"
fill="#000000" stroke="none">
<path d="M5809 10444 c-96 -15 -158 -41 -214 -87 -66 -56 -89 -105 -88 -198 0
-66 5 -85 36 -150 45 -94 99 -155 186 -213 63 -42 68 -48 65 -78 -1 -18 -5
-114 -8 -213 -11 -339 -35 -570 -86 -814 -11 -52 -20 -95 -20 -95 0 -1 -105
-1 -233 -1 -302 0 -491 -20 -732 -75 -27 -7 -59 -14 -70 -16 -11 -2 -50 -12
-88 -23 l-67 -20 -26 51 c-68 135 -157 394 -224 653 -34 132 -37 151 -23 160
44 28 113 100 129 133 26 54 26 128 2 180 -25 51 -79 110 -128 139 -203 119
-562 3 -618 -199 -24 -87 18 -177 118 -249 43 -31 86 -48 165 -63 l60 -11 63
-150 c99 -233 211 -584 224 -699 3 -29 0 -31 -127 -86 -207 -89 -343 -160
-525 -273 -63 -39 -117 -73 -120 -77 -3 -3 -50 -38 -105 -77 -55 -40 -143
-108 -195 -152 l-95 -79 -105 55 c-205 109 -454 285 -710 502 -189 161 -221
192 -211 205 35 45 58 207 38 273 -49 170 -269 261 -470 194 -253 -84 -467
-394 -422 -612 19 -95 59 -146 141 -184 130 -59 296 -49 426 26 l47 28 83 -51
c340 -205 673 -454 859 -640 55 -56 64 -69 53 -79 -30 -24 -157 -191 -230
-301 -100 -150 -222 -401 -278 -569 -24 -74 -47 -148 -50 -165 -2 -16 -7 -40
-11 -54 -3 -14 -10 -47 -15 -73 -11 -53 -18 -69 -28 -63 -4 2 -34 7 -67 10
-53 6 -92 12 -145 21 -124 23 -386 92 -574 153 l-58 18 -4 62 c-6 107 -66 194
-150 222 -56 19 -151 9 -215 -23 -77 -37 -134 -98 -180 -192 -114 -237 -48
-485 134 -500 98 -8 194 33 282 121 l62 62 42 -9 c23 -5 57 -11 77 -14 54 -7
107 -15 134 -20 14 -3 39 -8 55 -10 196 -34 554 -134 588 -165 5 -4 10 -137
12 -296 3 -159 7 -302 9 -319 3 -16 7 -64 11 -105 3 -41 7 -86 10 -100 2 -14
6 -50 9 -80 4 -30 8 -64 10 -76 2 -12 7 -44 11 -72 l6 -51 -111 -36 c-124 -40
-247 -72 -380 -99 -14 -3 -36 -8 -50 -11 -35 -7 -58 -12 -110 -20 -63 -9 -92
-14 -115 -19 -28 -5 -92 -15 -145 -21 -25 -3 -61 -8 -81 -11 -20 -3 -57 -7
-83 -9 -26 -2 -50 -6 -54 -9 -13 -8 -26 7 -52 59 -14 28 -50 75 -80 105 -99
98 -205 115 -332 52 -171 -84 -257 -255 -245 -487 12 -233 122 -425 273 -476
137 -46 310 53 394 225 22 44 42 95 45 111 3 17 7 37 9 44 1 8 9 18 17 23 30
16 500 144 599 162 14 3 72 14 130 26 58 11 128 23 155 26 28 3 57 7 65 10 11
4 104 12 181 16 40 3 45 -4 63 -74 29 -116 120 -383 171 -503 125 -293 291
-580 451 -781 l33 -42 -47 -43 c-115 -105 -423 -334 -538 -399 l-41 -24 -34
27 c-72 54 -174 75 -240 49 -135 -53 -200 -251 -139 -416 92 -246 344 -390
477 -273 45 40 78 92 93 148 14 51 15 160 1 206 -9 31 -7 34 53 90 55 52 146
133 216 194 14 12 63 51 110 87 47 37 87 69 90 72 3 3 38 27 78 54 l74 49 71
-70 c65 -63 104 -99 177 -163 199 -175 497 -361 778 -485 54 -24 62 -31 56
-49 -19 -65 -82 -234 -124 -330 -66 -151 -114 -259 -121 -271 -4 -5 -41 -77
-84 -160 -42 -82 -81 -155 -86 -161 -6 -8 -22 -9 -46 -4 -82 19 -206 -1 -268
-43 -90 -62 -119 -126 -119 -268 -1 -102 0 -107 36 -180 38 -76 105 -155 168
-199 19 -13 37 -27 40 -31 12 -15 161 -78 225 -93 89 -22 213 -19 276 7 75 30
131 94 154 175 11 37 8 142 -5 196 -15 68 -72 173 -119 222 l-40 41 53 159
c30 87 75 215 101 284 94 247 247 570 269 570 6 0 27 -5 46 -10 29 -9 174 -43
231 -55 9 -2 66 -11 125 -20 60 -10 117 -19 127 -21 128 -24 681 -23 806 1 20
4 20 1 16 -133 -3 -75 -7 -157 -9 -182 -10 -107 -18 -177 -21 -200 -2 -14 -6
-43 -9 -65 -3 -22 -9 -62 -12 -90 -3 -27 -9 -53 -12 -56 -4 -3 -34 -13 -67
-23 -82 -25 -130 -61 -160 -120 -28 -56 -31 -98 -11 -173 25 -93 90 -167 190
-214 83 -39 155 -52 262 -47 203 11 315 119 280 271 -23 98 -95 190 -184 236
-22 11 -42 26 -44 33 -12 35 2 606 17 688 1 8 6 38 10 66 l7 52 47 6 c75 10
315 73 457 121 168 57 313 119 487 208 l138 71 28 -30 c82 -88 238 -307 370
-519 63 -101 251 -447 251 -461 0 -5 -13 -23 -29 -40 -105 -112 -137 -257 -82
-365 46 -90 162 -174 271 -196 178 -36 399 41 552 190 178 175 181 377 7 496
-100 69 -246 99 -371 76 -37 -7 -26 -18 -160 160 -93 124 -258 363 -258 375 0
5 -4 10 -8 12 -21 8 -207 344 -255 460 l-16 37 92 72 c132 104 147 119 302
274 196 197 350 400 482 635 33 58 62 113 66 123 3 9 10 17 15 17 14 0 361
-236 382 -260 3 -3 34 -28 70 -55 36 -27 68 -53 71 -58 3 -5 0 -27 -8 -50 -22
-63 -19 -155 6 -205 45 -88 117 -125 241 -126 75 0 93 4 150 31 112 54 214
172 258 298 44 124 33 211 -33 280 -36 36 -52 45 -111 58 -103 22 -183 9 -283
-48 l-43 -25 -72 37 c-174 91 -520 307 -530 330 -3 7 2 29 11 50 50 121 142
424 159 528 3 17 9 46 14 65 5 19 12 58 16 85 3 28 8 52 9 55 2 3 6 37 10 75
9 89 13 107 22 115 13 10 126 44 188 56 111 22 181 33 240 39 39 4 81 8 94 10
36 6 251 17 374 19 l107 2 25 -53 c31 -69 57 -101 107 -135 108 -74 294 -2
367 140 57 112 66 279 21 406 -26 72 -82 146 -130 171 -122 63 -298 -35 -366
-203 -21 -53 -26 -58 -68 -69 -25 -6 -60 -13 -78 -16 -18 -3 -62 -10 -98 -16
-36 -6 -85 -13 -110 -16 -25 -3 -61 -7 -80 -10 -230 -31 -552 -37 -579 -9 -3
2 -6 54 -7 115 -2 109 -12 265 -19 311 -2 13 -6 48 -9 78 -4 30 -8 66 -11 80
-2 14 -6 41 -9 60 -3 19 -13 69 -21 110 -8 41 -18 86 -21 100 -2 14 -12 50
-20 80 -9 30 -18 65 -20 77 -2 12 -24 81 -47 152 l-43 131 70 48 c164 112 352
212 616 329 136 61 398 163 416 163 6 0 25 -18 43 -40 94 -117 245 -162 364
-107 61 28 149 114 178 174 74 153 62 352 -31 532 -89 171 -226 275 -361 273
-158 -2 -306 -196 -312 -409 -1 -64 -6 -91 -17 -99 -32 -24 -311 -184 -430
-247 -215 -113 -446 -212 -622 -267 -66 -21 -60 -25 -112 75 -44 84 -43 82
-130 215 -125 191 -250 344 -413 505 -81 81 -277 248 -350 300 -24 17 -43 34
-43 38 0 18 95 247 147 350 71 145 106 210 176 330 l58 97 42 -7 c170 -29 286
53 300 211 9 103 -30 196 -118 282 -101 99 -234 154 -358 149 -144 -7 -218
-93 -211 -245 4 -69 27 -130 75 -200 l39 -56 -19 -54 c-77 -217 -250 -583
-331 -700 l-15 -21 -88 50 c-193 112 -452 224 -677 295 -63 20 -124 38 -135
41 -162 39 -279 65 -318 70 -26 4 -50 12 -53 17 -6 10 -5 229 1 315 5 67 16
176 21 206 2 16 6 45 8 65 4 39 24 184 30 218 7 38 59 319 60 321 1 1 21 4 45
8 129 19 235 85 276 172 56 118 16 298 -92 408 -128 130 -358 200 -554 169z"/>
</g>
</svg>
